# xmcd CD database file
#
# Track frame offsets:
#	150
#	19306
#	37909
#	58240
#	83185
#	103306
#	123169
#	140939
#	163055
#	183406
#	202007
#	223633
#	244720
#
# Disc length: 3605 seconds
#
# Revision: 0
# Processed by: cddbd v1.5.2PL0 Copyright (c) Steve Scherf et al.
# Submitted via: CDex 1.90
#
DISCID=c30e130d
DTITLE=Lesiem - Auracle
DYEAR=2008
DGENRE=New Age
TTITLE0=Humilitas (Humanity)
TTITLE1=Lesiem - Temperantia (Moderateness)
TTITLE2=Lesiem - Caritas (Charity)
TTITLE3=Lesiem - Fides (Belief)
TTITLE4=Lesiem - Justitia (Justice)
TTITLE5=Lesiem - Patientia (Patience)
TTITLE6=Lesiem - Spes (Hope)
TTITLE7=Lesiem - Prudentia (Prudence)
TTITLE8=Lesiem - Times
TTITLE9=Lesiem - Invidia (Envy)
TTITLE10=Lesiem - Vanitas (Vanity)
TTITLE11=Lesiem - Fortitudo (Fortitude)
TTITLE12=Lesiem - Auracle - 13. Bonitas (Goodness)
EXTD=YEAR: 2008
EXTT0=
EXTT1=
EXTT2=
EXTT3=
EXTT4=
EXTT5=
EXTT6=
EXTT7=
EXTT8=
EXTT9=
EXTT10=
EXTT11=
EXTT12=
PLAYORDER=
